REM DIRINDEX 1\2\5,1\2\6,1\3\7,1\3\8,1\4\9,1\4\10
REM DIRNAME cjc079,folder01,folder02,folder03,folder04,folder05,folder06,folder07,folder08,folder09
TITLE ""
FILE "Track13.mp3" MP3
  TRACK 01 AUDIO
    TITLE "8:cjc079_0263"
    INDEX 01 00:00:00
  TRACK 02 AUDIO
    TITLE "8:cjc079_0264"
    INDEX 01 00:05:14
  TRACK 03 AUDIO
    TITLE "8:cjc079_0265"
    INDEX 01 00:09:36
  TRACK 04 AUDIO
    TITLE "8:cjc079_0266"
    INDEX 01 00:15:28
  TRACK 05 AUDIO
    TITLE "8:cjc079_0267"
    INDEX 01 00:17:33
  TRACK 06 AUDIO
    TITLE "7:cjc079_0268"
    INDEX 01 00:18:70
  TRACK 07 AUDIO
    TITLE "0:"
    INDEX 01 00:20:14
  TRACK 08 AUDIO
    TITLE "7:cjc079_0269"
    INDEX 01 00:20:57
  TRACK 09 AUDIO
    TITLE "0:"
    INDEX 01 00:22:03
  TRACK 10 AUDIO
    TITLE "7:cjc079_0270"
    INDEX 01 00:23:46
  TRACK 11 AUDIO
    TITLE "0:"
    INDEX 01 00:24:65
  TRACK 12 AUDIO
    TITLE "7:cjc079_0271"
    INDEX 01 00:25:33
  TRACK 13 AUDIO
    TITLE "0:"
    INDEX 01 00:26:50
  TRACK 14 AUDIO
    TITLE "7:cjc079_0272"
    INDEX 01 00:28:19
  TRACK 15 AUDIO
    TITLE "0:"
    INDEX 01 00:29:36
  TRACK 16 AUDIO
    TITLE "7:cjc079_0273"
    INDEX 01 00:30:05
  TRACK 17 AUDIO
    TITLE "0:"
    INDEX 01 00:31:18
  TRACK 18 AUDIO
    TITLE "7:cjc079_0274"
    INDEX 01 00:32:66
  TRACK 19 AUDIO
    TITLE "0:"
    INDEX 01 00:34:22
  TRACK 20 AUDIO
    TITLE "7:cjc079_0275"
    INDEX 01 00:34:67
  TRACK 21 AUDIO
    TITLE "0:"
    INDEX 01 00:36:23
  TRACK 22 AUDIO
    TITLE "8:cjc079_0276"
    INDEX 01 00:37:71
  TRACK 23 AUDIO
    TITLE "7:cjc079_0277"
    INDEX 01 00:39:27
  TRACK 24 AUDIO
    TITLE "0:"
    INDEX 01 00:40:36
  TRACK 25 AUDIO
    TITLE "7:cjc079_0278"
    INDEX 01 00:41:04
  TRACK 26 AUDIO
    TITLE "0:"
    INDEX 01 00:42:10
  TRACK 27 AUDIO
    TITLE "7:cjc079_0279"
    INDEX 01 00:43:58
  TRACK 28 AUDIO
    TITLE "0:"
    INDEX 01 00:44:69
  TRACK 29 AUDIO
    TITLE "7:cjc079_0280"
    INDEX 01 00:45:39
  TRACK 30 AUDIO
    TITLE "0:"
    INDEX 01 00:46:49
  TRACK 31 AUDIO
    TITLE "7:cjc079_0281"
    INDEX 01 00:48:18
  TRACK 32 AUDIO
    TITLE "0:"
    INDEX 01 00:49:35
  TRACK 33 AUDIO
    TITLE "7:cjc079_0282"
    INDEX 01 00:50:03
  TRACK 34 AUDIO
    TITLE "0:"
    INDEX 01 00:51:20
  TRACK 35 AUDIO
    TITLE "7:cjc079_0283"
    INDEX 01 00:52:65
  TRACK 36 AUDIO
    TITLE "0:"
    INDEX 01 00:54:05
  TRACK 37 AUDIO
    TITLE "7:cjc079_0284"
    INDEX 01 00:54:54
  TRACK 38 AUDIO
    TITLE "0:"
    INDEX 01 00:55:73
  TRACK 39 AUDIO
    TITLE "8:cjc079_0285"
    INDEX 01 00:57:45
  TRACK 40 AUDIO
    TITLE "7:cjc079_0286"
    INDEX 01 00:59:22
  TRACK 41 AUDIO
    TITLE "0:"
    INDEX 01 01:00:51
  TRACK 42 AUDIO
    TITLE "7:cjc079_0287"
    INDEX 01 01:01:23
  TRACK 43 AUDIO
    TITLE "0:"
    INDEX 01 01:02:54
  TRACK 44 AUDIO
    TITLE "7:cjc079_0288"
    INDEX 01 01:04:27
  TRACK 45 AUDIO
    TITLE "0:"
    INDEX 01 01:05:64
  TRACK 46 AUDIO
    TITLE "7:cjc079_0289"
    INDEX 01 01:06:38
  TRACK 47 AUDIO
    TITLE "0:"
    INDEX 01 01:08:01
  TRACK 48 AUDIO
    TITLE "7:cjc079_0290"
    INDEX 01 01:09:50
  TRACK 49 AUDIO
    TITLE "0:"
    INDEX 01 01:10:73
  TRACK 50 AUDIO
    TITLE "7:cjc079_0291"
    INDEX 01 01:11:51
  TRACK 51 AUDIO
    TITLE "0:"
    INDEX 01 01:13:00
  TRACK 52 AUDIO
    TITLE "7:cjc079_0292"
    INDEX 01 01:14:53
  TRACK 53 AUDIO
    TITLE "0:"
    INDEX 01 01:16:07
  TRACK 54 AUDIO
    TITLE "7:cjc079_0293"
    INDEX 01 01:16:60
  TRACK 55 AUDIO
    TITLE "0:"
    INDEX 01 01:18:15
  TRACK 56 AUDIO
    TITLE "8:cjc079_0294"
    INDEX 01 01:19:68
  TRACK 57 AUDIO
    TITLE "7:cjc079_0295"
    INDEX 01 01:21:31
  TRACK 58 AUDIO
    TITLE "0:"
    INDEX 01 01:22:52
  TRACK 59 AUDIO
    TITLE "7:cjc079_0296"
    INDEX 01 01:23:24
  TRACK 60 AUDIO
    TITLE "0:"
    INDEX 01 01:24:45
  TRACK 61 AUDIO
    TITLE "7:cjc079_0297"
    INDEX 01 01:26:21
  TRACK 62 AUDIO
    TITLE "0:"
    INDEX 01 01:27:50
  TRACK 63 AUDIO
    TITLE "7:cjc079_0298"
    INDEX 01 01:28:22
  TRACK 64 AUDIO
    TITLE "0:"
    INDEX 01 01:29:48
  TRACK 65 AUDIO
    TITLE "7:cjc079_0299"
    INDEX 01 01:31:18
  TRACK 66 AUDIO
    TITLE "0:"
    INDEX 01 01:32:53
  TRACK 67 AUDIO
    TITLE "7:cjc079_0300"
    INDEX 01 01:33:25
  TRACK 68 AUDIO
    TITLE "0:"
    INDEX 01 01:34:61
  TRACK 69 AUDIO
    TITLE "7:cjc079_0301"
    INDEX 01 01:36:33
  TRACK 70 AUDIO
    TITLE "0:"
    INDEX 01 01:37:54
  TRACK 71 AUDIO
    TITLE "7:cjc079_0302"
    INDEX 01 01:38:30
  TRACK 72 AUDIO
    TITLE "0:"
    INDEX 01 01:39:49
  TRACK 73 AUDIO
    TITLE "8:cjc079_0303"
    INDEX 01 01:41:30
  TRACK 74 AUDIO
    TITLE "7:cjc079_0304"
    INDEX 01 01:42:67
  TRACK 75 AUDIO
    TITLE "0:"
    INDEX 01 01:44:15
  TRACK 76 AUDIO
    TITLE "7:cjc079_0305"
    INDEX 01 01:44:64
  TRACK 77 AUDIO
    TITLE "0:"
    INDEX 01 01:46:12
  TRACK 78 AUDIO
    TITLE "7:cjc079_0306"
    INDEX 01 01:47:62
  TRACK 79 AUDIO
    TITLE "0:"
    INDEX 01 01:48:69
  TRACK 80 AUDIO
    TITLE "7:cjc079_0307"
    INDEX 01 01:49:43
  TRACK 81 AUDIO
    TITLE "0:"
    INDEX 01 01:50:53
  TRACK 82 AUDIO
    TITLE "7:cjc079_0308"
    INDEX 01 01:52:24
  TRACK 83 AUDIO
    TITLE "0:"
    INDEX 01 01:53:47
  TRACK 84 AUDIO
    TITLE "7:cjc079_0309"
    INDEX 01 01:54:19
  TRACK 85 AUDIO
    TITLE "0:"
    INDEX 01 01:55:40
  TRACK 86 AUDIO
    TITLE "7:cjc079_0310"
    INDEX 01 01:57:15
  TRACK 87 AUDIO
    TITLE "0:"
    INDEX 01 01:58:32
  TRACK 88 AUDIO
    TITLE "7:cjc079_0311"
    INDEX 01 01:59:08
  TRACK 89 AUDIO
    TITLE "0:"
    INDEX 01 02:00:25
